<svg xmlns="http://www.w3.org/2000/svg" xmlns:xlink="http://www.w3.org/1999/xlink" width="500" zoomAndPan="magnify" viewBox="0 0 375 374.999991" height="500" preserveAspectRatio="xMidYMid meet" version="1.0"><defs><g/><clipPath id="538c85a65a"><path d="M 299.21875 149.753906 L 353.96875 149.753906 L 353.96875 199.253906 L 299.21875 199.253906 Z M 299.21875 149.753906 " clip-rule="nonzero"/></clipPath><clipPath id="fc9df2a927"><path d="M 211.910156 182.457031 L 224.207031 182.457031 L 224.207031 191.304688 L 211.910156 191.304688 Z M 211.910156 182.457031 " clip-rule="nonzero"/></clipPath></defs><g clip-path="url(#538c85a65a)"><path fill="#000000" d="M 347.453125 149.761719 L 305.738281 149.761719 C 305.308594 149.761719 304.886719 149.804688 304.464844 149.886719 C 304.046875 149.96875 303.640625 150.09375 303.242188 150.257812 C 302.847656 150.421875 302.472656 150.621094 302.117188 150.859375 C 301.761719 151.097656 301.433594 151.367188 301.128906 151.667969 C 300.828125 151.972656 300.558594 152.300781 300.320312 152.65625 C 300.082031 153.011719 299.882812 153.386719 299.71875 153.78125 C 299.554688 154.175781 299.429688 154.582031 299.34375 155 C 299.261719 155.421875 299.21875 155.84375 299.21875 156.273438 L 299.21875 197.941406 C 299.21875 198.207031 299.292969 198.445312 299.4375 198.664062 C 299.585938 198.882812 299.78125 199.042969 300.023438 199.144531 C 300.265625 199.246094 300.519531 199.269531 300.777344 199.21875 C 301.035156 199.167969 301.257812 199.050781 301.445312 198.863281 L 311.492188 188.828125 L 347.453125 188.828125 C 347.878906 188.824219 348.304688 188.785156 348.722656 188.699219 C 349.140625 188.617188 349.550781 188.492188 349.945312 188.328125 C 350.339844 188.164062 350.714844 187.964844 351.070312 187.726562 C 351.425781 187.488281 351.753906 187.21875 352.058594 186.917969 C 352.359375 186.613281 352.628906 186.285156 352.867188 185.929688 C 353.105469 185.574219 353.308594 185.199219 353.472656 184.804688 C 353.636719 184.410156 353.757812 184.003906 353.84375 183.585938 C 353.925781 183.167969 353.96875 182.742188 353.96875 182.316406 L 353.96875 156.273438 C 353.96875 155.84375 353.925781 155.421875 353.84375 155 C 353.757812 154.582031 353.636719 154.175781 353.472656 153.78125 C 353.308594 153.386719 353.105469 153.011719 352.867188 152.65625 C 352.628906 152.300781 352.359375 151.972656 352.058594 151.667969 C 351.753906 151.367188 351.425781 151.097656 351.070312 150.859375 C 350.714844 150.621094 350.339844 150.421875 349.945312 150.257812 C 349.550781 150.09375 349.140625 149.96875 348.722656 149.886719 C 348.304688 149.804688 347.878906 149.761719 347.453125 149.761719 Z M 351.363281 182.316406 C 351.363281 182.832031 351.261719 183.332031 351.0625 183.808594 C 350.863281 184.289062 350.582031 184.710938 350.214844 185.078125 C 349.847656 185.441406 349.425781 185.726562 348.945312 185.921875 C 348.46875 186.121094 347.96875 186.222656 347.453125 186.222656 L 310.953125 186.222656 C 310.589844 186.222656 310.285156 186.347656 310.03125 186.605469 L 301.828125 194.796875 L 301.828125 156.273438 C 301.828125 155.753906 301.925781 155.253906 302.125 154.777344 C 302.324219 154.296875 302.605469 153.875 302.972656 153.511719 C 303.339844 153.144531 303.761719 152.863281 304.242188 152.664062 C 304.71875 152.464844 305.21875 152.367188 305.738281 152.363281 L 347.453125 152.363281 C 347.96875 152.367188 348.46875 152.464844 348.945312 152.664062 C 349.425781 152.863281 349.847656 153.144531 350.214844 153.511719 C 350.582031 153.875 350.863281 154.296875 351.0625 154.777344 C 351.261719 155.253906 351.363281 155.753906 351.363281 156.273438 Z M 343.539062 161.480469 C 343.539062 161.652344 343.507812 161.820312 343.441406 161.980469 C 343.375 162.136719 343.28125 162.277344 343.160156 162.402344 C 343.035156 162.523438 342.894531 162.617188 342.734375 162.683594 C 342.578125 162.75 342.410156 162.78125 342.238281 162.78125 L 310.953125 162.78125 C 310.777344 162.78125 310.613281 162.75 310.453125 162.683594 C 310.292969 162.617188 310.152344 162.523438 310.03125 162.402344 C 309.90625 162.277344 309.8125 162.136719 309.746094 161.980469 C 309.679688 161.820312 309.648438 161.652344 309.648438 161.480469 C 309.648438 161.308594 309.679688 161.140625 309.746094 160.980469 C 309.8125 160.824219 309.90625 160.679688 310.03125 160.558594 C 310.152344 160.4375 310.292969 160.34375 310.453125 160.277344 C 310.613281 160.210938 310.777344 160.179688 310.953125 160.179688 L 342.238281 160.179688 C 342.410156 160.179688 342.578125 160.210938 342.734375 160.277344 C 342.894531 160.34375 343.035156 160.4375 343.160156 160.558594 C 343.28125 160.679688 343.375 160.824219 343.441406 160.980469 C 343.507812 161.140625 343.539062 161.308594 343.539062 161.480469 Z M 343.539062 169.292969 C 343.539062 169.464844 343.507812 169.632812 343.441406 169.792969 C 343.375 169.953125 343.28125 170.09375 343.160156 170.214844 C 343.035156 170.335938 342.894531 170.429688 342.734375 170.496094 C 342.578125 170.5625 342.410156 170.597656 342.238281 170.597656 L 310.953125 170.597656 C 310.777344 170.597656 310.613281 170.5625 310.453125 170.496094 C 310.292969 170.429688 310.152344 170.335938 310.03125 170.214844 C 309.90625 170.09375 309.8125 169.953125 309.746094 169.792969 C 309.679688 169.632812 309.648438 169.464844 309.648438 169.292969 C 309.648438 169.121094 309.679688 168.953125 309.746094 168.796875 C 309.8125 168.636719 309.90625 168.496094 310.03125 168.371094 C 310.152344 168.25 310.292969 168.15625 310.453125 168.089844 C 310.613281 168.023438 310.777344 167.992188 310.953125 167.992188 L 342.238281 167.992188 C 342.410156 167.992188 342.578125 168.023438 342.734375 168.089844 C 342.894531 168.15625 343.035156 168.25 343.160156 168.371094 C 343.28125 168.496094 343.375 168.636719 343.441406 168.796875 C 343.507812 168.953125 343.539062 169.121094 343.539062 169.292969 Z M 343.539062 177.105469 C 343.539062 177.28125 343.507812 177.445312 343.441406 177.605469 C 343.375 177.765625 343.28125 177.90625 343.160156 178.027344 C 343.035156 178.148438 342.894531 178.242188 342.734375 178.308594 C 342.578125 178.375 342.410156 178.410156 342.238281 178.410156 L 310.953125 178.410156 C 310.777344 178.410156 310.613281 178.375 310.453125 178.308594 C 310.292969 178.242188 310.152344 178.148438 310.03125 178.027344 C 309.90625 177.90625 309.8125 177.765625 309.746094 177.605469 C 309.679688 177.445312 309.648438 177.28125 309.648438 177.105469 C 309.648438 176.933594 309.679688 176.769531 309.746094 176.609375 C 309.8125 176.449219 309.90625 176.308594 310.03125 176.1875 C 310.152344 176.0625 310.292969 175.96875 310.453125 175.902344 C 310.613281 175.835938 310.777344 175.804688 310.953125 175.804688 L 342.238281 175.804688 C 342.410156 175.804688 342.578125 175.835938 342.734375 175.902344 C 342.894531 175.96875 343.035156 176.0625 343.160156 176.1875 C 343.28125 176.308594 343.375 176.449219 343.441406 176.609375 C 343.507812 176.769531 343.539062 176.933594 343.539062 177.105469 Z M 343.539062 177.105469 " fill-opacity="1" fill-rule="nonzero"/></g><g clip-path="url(#fc9df2a927)"><path fill="#000000" d="M 211.910156 182.457031 L 224.214844 182.457031 L 224.214844 191.304688 L 211.910156 191.304688 Z M 211.910156 182.457031 " fill-opacity="1" fill-rule="nonzero"/></g><g fill="#000000" fill-opacity="1"><g transform="translate(22.821968, 222.459194)"><g><path d="M 3.96875 -35.21875 L 16.3125 -35.21875 L 16.3125 0 L 3.96875 0 Z M 10.140625 -39.125 C 7.890625 -39.125 6.070312 -39.75 4.6875 -41 C 3.300781 -42.257812 2.609375 -43.820312 2.609375 -45.6875 C 2.609375 -47.550781 3.300781 -49.109375 4.6875 -50.359375 C 6.070312 -51.617188 7.890625 -52.25 10.140625 -52.25 C 12.398438 -52.25 14.222656 -51.648438 15.609375 -50.453125 C 16.992188 -49.265625 17.6875 -47.738281 17.6875 -45.875 C 17.6875 -43.925781 16.992188 -42.3125 15.609375 -41.03125 C 14.222656 -39.757812 12.398438 -39.125 10.140625 -39.125 Z M 10.140625 -39.125 "/></g></g></g><g fill="#000000" fill-opacity="1"><g transform="translate(37.640087, 222.459194)"><g><path d="M 39.96875 -17.546875 C 39.96875 -17.460938 39.898438 -16.441406 39.765625 -14.484375 L 14.171875 -14.484375 C 14.691406 -12.671875 15.695312 -11.273438 17.1875 -10.296875 C 18.6875 -9.328125 20.5625 -8.84375 22.8125 -8.84375 C 24.5 -8.84375 25.957031 -9.078125 27.1875 -9.546875 C 28.425781 -10.023438 29.675781 -10.804688 30.9375 -11.890625 L 37.4375 -5.140625 C 34.007812 -1.328125 29.003906 0.578125 22.421875 0.578125 C 18.304688 0.578125 14.6875 -0.195312 11.5625 -1.75 C 8.445312 -3.3125 6.03125 -5.476562 4.3125 -8.25 C 2.601562 -11.019531 1.75 -14.160156 1.75 -17.671875 C 1.75 -21.140625 2.582031 -24.25 4.25 -27 C 5.925781 -29.75 8.234375 -31.90625 11.171875 -33.46875 C 14.117188 -35.03125 17.4375 -35.8125 21.125 -35.8125 C 24.632812 -35.8125 27.816406 -35.082031 30.671875 -33.625 C 33.535156 -32.175781 35.800781 -30.078125 37.46875 -27.328125 C 39.132812 -24.578125 39.96875 -21.316406 39.96875 -17.546875 Z M 21.1875 -27.03125 C 19.28125 -27.03125 17.6875 -26.488281 16.40625 -25.40625 C 15.125 -24.320312 14.3125 -22.847656 13.96875 -20.984375 L 28.390625 -20.984375 C 28.046875 -22.847656 27.234375 -24.320312 25.953125 -25.40625 C 24.679688 -26.488281 23.09375 -27.03125 21.1875 -27.03125 Z M 21.1875 -27.03125 "/></g></g></g><g fill="#000000" fill-opacity="1"><g transform="translate(73.840503, 222.459194)"><g><path d="M 3.96875 -48.21875 L 16.3125 -48.21875 L 16.3125 0 L 3.96875 0 Z M 3.96875 -48.21875 "/></g></g></g><g fill="#000000" fill-opacity="1"><g transform="translate(88.658622, 222.459194)"><g><path d="M 28.265625 -1.421875 C 27.222656 -0.773438 25.953125 -0.28125 24.453125 0.0625 C 22.960938 0.40625 21.375 0.578125 19.6875 0.578125 C 15.09375 0.578125 11.5625 -0.546875 9.09375 -2.796875 C 6.625 -5.046875 5.390625 -8.398438 5.390625 -12.859375 L 5.390625 -24.6875 L 0.265625 -24.6875 L 0.265625 -33.921875 L 5.390625 -33.921875 L 5.390625 -43.078125 L 17.734375 -43.078125 L 17.734375 -33.921875 L 25.796875 -33.921875 L 25.796875 -24.6875 L 17.734375 -24.6875 L 17.734375 -13 C 17.734375 -11.738281 18.066406 -10.75 18.734375 -10.03125 C 19.410156 -9.320312 20.3125 -8.96875 21.4375 -8.96875 C 22.875 -8.96875 24.132812 -9.335938 25.21875 -10.078125 Z M 28.265625 -1.421875 "/></g></g></g><g fill="#000000" fill-opacity="1"><g transform="translate(112.185635, 222.459194)"><g><path d="M 16.765625 0.578125 C 13.816406 0.578125 10.910156 0.242188 8.046875 -0.421875 C 5.191406 -1.085938 2.898438 -1.960938 1.171875 -3.046875 L 4.875 -11.5 C 6.476562 -10.5 8.382812 -9.707031 10.59375 -9.125 C 12.800781 -8.539062 14.988281 -8.25 17.15625 -8.25 C 19.144531 -8.25 20.5625 -8.453125 21.40625 -8.859375 C 22.25 -9.273438 22.671875 -9.875 22.671875 -10.65625 C 22.671875 -11.4375 22.160156 -11.988281 21.140625 -12.3125 C 20.128906 -12.632812 18.519531 -12.945312 16.3125 -13.25 C 13.5 -13.601562 11.101562 -14.0625 9.125 -14.625 C 7.15625 -15.1875 5.457031 -16.222656 4.03125 -17.734375 C 2.601562 -19.253906 1.890625 -21.378906 1.890625 -24.109375 C 1.890625 -26.359375 2.554688 -28.359375 3.890625 -30.109375 C 5.234375 -31.867188 7.191406 -33.257812 9.765625 -34.28125 C 12.347656 -35.300781 15.441406 -35.8125 19.046875 -35.8125 C 21.597656 -35.8125 24.128906 -35.550781 26.640625 -35.03125 C 29.148438 -34.507812 31.253906 -33.769531 32.953125 -32.8125 L 29.25 -24.4375 C 26.125 -26.164062 22.742188 -27.03125 19.109375 -27.03125 C 17.160156 -27.03125 15.726562 -26.800781 14.8125 -26.34375 C 13.90625 -25.894531 13.453125 -25.300781 13.453125 -24.5625 C 13.453125 -23.738281 13.945312 -23.164062 14.9375 -22.84375 C 15.9375 -22.519531 17.585938 -22.179688 19.890625 -21.828125 C 22.785156 -21.398438 25.1875 -20.90625 27.09375 -20.34375 C 29 -19.78125 30.65625 -18.75 32.0625 -17.25 C 33.476562 -15.757812 34.1875 -13.671875 34.1875 -10.984375 C 34.1875 -8.773438 33.515625 -6.789062 32.171875 -5.03125 C 30.828125 -3.28125 28.84375 -1.90625 26.21875 -0.90625 C 23.601562 0.0820312 20.453125 0.578125 16.765625 0.578125 Z M 16.765625 0.578125 "/></g></g></g><g fill="#000000" fill-opacity="1"><g transform="translate(142.211834, 222.459194)"><g><path d="M 16.765625 0.578125 C 13.816406 0.578125 10.910156 0.242188 8.046875 -0.421875 C 5.191406 -1.085938 2.898438 -1.960938 1.171875 -3.046875 L 4.875 -11.5 C 6.476562 -10.5 8.382812 -9.707031 10.59375 -9.125 C 12.800781 -8.539062 14.988281 -8.25 17.15625 -8.25 C 19.144531 -8.25 20.5625 -8.453125 21.40625 -8.859375 C 22.25 -9.273438 22.671875 -9.875 22.671875 -10.65625 C 22.671875 -11.4375 22.160156 -11.988281 21.140625 -12.3125 C 20.128906 -12.632812 18.519531 -12.945312 16.3125 -13.25 C 13.5 -13.601562 11.101562 -14.0625 9.125 -14.625 C 7.15625 -15.1875 5.457031 -16.222656 4.03125 -17.734375 C 2.601562 -19.253906 1.890625 -21.378906 1.890625 -24.109375 C 1.890625 -26.359375 2.554688 -28.359375 3.890625 -30.109375 C 5.234375 -31.867188 7.191406 -33.257812 9.765625 -34.28125 C 12.347656 -35.300781 15.441406 -35.8125 19.046875 -35.8125 C 21.597656 -35.8125 24.128906 -35.550781 26.640625 -35.03125 C 29.148438 -34.507812 31.253906 -33.769531 32.953125 -32.8125 L 29.25 -24.4375 C 26.125 -26.164062 22.742188 -27.03125 19.109375 -27.03125 C 17.160156 -27.03125 15.726562 -26.800781 14.8125 -26.34375 C 13.90625 -25.894531 13.453125 -25.300781 13.453125 -24.5625 C 13.453125 -23.738281 13.945312 -23.164062 14.9375 -22.84375 C 15.9375 -22.519531 17.585938 -22.179688 19.890625 -21.828125 C 22.785156 -21.398438 25.1875 -20.90625 27.09375 -20.34375 C 29 -19.78125 30.65625 -18.75 32.0625 -17.25 C 33.476562 -15.757812 34.1875 -13.671875 34.1875 -10.984375 C 34.1875 -8.773438 33.515625 -6.789062 32.171875 -5.03125 C 30.828125 -3.28125 28.84375 -1.90625 26.21875 -0.90625 C 23.601562 0.0820312 20.453125 0.578125 16.765625 0.578125 Z M 16.765625 0.578125 "/></g></g></g><g fill="#000000" fill-opacity="1"><g transform="translate(172.238033, 222.459194)"><g><path d="M 26.125 -35.8125 C 29.332031 -35.8125 32.242188 -35.0625 34.859375 -33.5625 C 37.484375 -32.070312 39.5625 -29.945312 41.09375 -27.1875 C 42.632812 -24.4375 43.40625 -21.242188 43.40625 -17.609375 C 43.40625 -13.972656 42.632812 -10.78125 41.09375 -8.03125 C 39.5625 -5.28125 37.484375 -3.15625 34.859375 -1.65625 C 32.242188 -0.164062 29.332031 0.578125 26.125 0.578125 C 22.007812 0.578125 18.738281 -0.65625 16.3125 -3.125 L 16.3125 12.609375 L 3.96875 12.609375 L 3.96875 -35.21875 L 15.71875 -35.21875 L 15.71875 -31.71875 C 18.019531 -34.445312 21.488281 -35.8125 26.125 -35.8125 Z M 23.53125 -9.234375 C 25.695312 -9.234375 27.472656 -9.976562 28.859375 -11.46875 C 30.242188 -12.96875 30.9375 -15.015625 30.9375 -17.609375 C 30.9375 -20.210938 30.242188 -22.257812 28.859375 -23.75 C 27.472656 -25.25 25.695312 -26 23.53125 -26 C 21.363281 -26 19.582031 -25.25 18.1875 -23.75 C 16.800781 -22.257812 16.109375 -20.210938 16.109375 -17.609375 C 16.109375 -15.015625 16.800781 -12.96875 18.1875 -11.46875 C 19.582031 -9.976562 21.363281 -9.234375 23.53125 -9.234375 Z M 23.53125 -9.234375 "/></g></g></g><g fill="#000000" fill-opacity="1"><g transform="translate(211.883005, 222.459194)"><g><path d="M 39.96875 -17.546875 C 39.96875 -17.460938 39.898438 -16.441406 39.765625 -14.484375 L 14.171875 -14.484375 C 14.691406 -12.671875 15.695312 -11.273438 17.1875 -10.296875 C 18.6875 -9.328125 20.5625 -8.84375 22.8125 -8.84375 C 24.5 -8.84375 25.957031 -9.078125 27.1875 -9.546875 C 28.425781 -10.023438 29.675781 -10.804688 30.9375 -11.890625 L 37.4375 -5.140625 C 34.007812 -1.328125 29.003906 0.578125 22.421875 0.578125 C 18.304688 0.578125 14.6875 -0.195312 11.5625 -1.75 C 8.445312 -3.3125 6.03125 -5.476562 4.3125 -8.25 C 2.601562 -11.019531 1.75 -14.160156 1.75 -17.671875 C 1.75 -21.140625 2.582031 -24.25 4.25 -27 C 5.925781 -29.75 8.234375 -31.90625 11.171875 -33.46875 C 14.117188 -35.03125 17.4375 -35.8125 21.125 -35.8125 C 24.632812 -35.8125 27.816406 -35.082031 30.671875 -33.625 C 33.535156 -32.175781 35.800781 -30.078125 37.46875 -27.328125 C 39.132812 -24.578125 39.96875 -21.316406 39.96875 -17.546875 Z M 21.1875 -27.03125 C 19.28125 -27.03125 17.6875 -26.488281 16.40625 -25.40625 C 15.125 -24.320312 14.3125 -22.847656 13.96875 -20.984375 L 28.390625 -20.984375 C 28.046875 -22.847656 27.234375 -24.320312 25.953125 -25.40625 C 24.679688 -26.488281 23.09375 -27.03125 21.1875 -27.03125 Z M 21.1875 -27.03125 "/></g></g></g><g fill="#000000" fill-opacity="1"><g transform="translate(248.083421, 222.459194)"><g><path d="M 18.96875 -35.8125 C 24.820312 -35.8125 29.285156 -34.476562 32.359375 -31.8125 C 35.429688 -29.144531 36.96875 -25.0625 36.96875 -19.5625 L 36.96875 0 L 25.46875 0 L 25.46875 -4.546875 C 23.695312 -1.128906 20.234375 0.578125 15.078125 0.578125 C 12.347656 0.578125 9.984375 0.101562 7.984375 -0.84375 C 5.992188 -1.800781 4.488281 -3.085938 3.46875 -4.703125 C 2.457031 -6.328125 1.953125 -8.179688 1.953125 -10.265625 C 1.953125 -13.597656 3.226562 -16.1875 5.78125 -18.03125 C 8.34375 -19.875 12.285156 -20.796875 17.609375 -20.796875 L 24.625 -20.796875 C 24.40625 -24.523438 21.914062 -26.390625 17.15625 -26.390625 C 15.46875 -26.390625 13.753906 -26.117188 12.015625 -25.578125 C 10.285156 -25.035156 8.816406 -24.285156 7.609375 -23.328125 L 3.4375 -31.71875 C 5.394531 -33.007812 7.769531 -34.015625 10.5625 -34.734375 C 13.351562 -35.453125 16.15625 -35.8125 18.96875 -35.8125 Z M 18.515625 -7.21875 C 19.953125 -7.21875 21.210938 -7.5625 22.296875 -8.25 C 23.378906 -8.945312 24.15625 -9.96875 24.625 -11.3125 L 24.625 -14.359375 L 19.296875 -14.359375 C 15.703125 -14.359375 13.90625 -13.164062 13.90625 -10.78125 C 13.90625 -9.695312 14.316406 -8.832031 15.140625 -8.1875 C 15.960938 -7.539062 17.085938 -7.21875 18.515625 -7.21875 Z M 18.515625 -7.21875 "/></g></g></g><g fill="#000000" fill-opacity="1"><g transform="translate(283.373945, 222.459194)"><g><path d="M 19.953125 -12.34375 L 16.3125 -8.640625 L 16.3125 0 L 3.96875 0 L 3.96875 -48.21875 L 16.3125 -48.21875 L 16.3125 -22.9375 L 28.921875 -35.21875 L 43.546875 -35.21875 L 28.921875 -20.140625 L 44.78125 0 L 29.828125 0 Z M 19.953125 -12.34375 "/></g></g></g><g fill="#000000" fill-opacity="1"><g transform="translate(231.002594, 182.989801)"><g><path d="M 10.25 -4.5 C 10.25 -4.476562 10.234375 -4.21875 10.203125 -3.71875 L 3.640625 -3.71875 C 3.765625 -3.25 4.019531 -2.890625 4.40625 -2.640625 C 4.789062 -2.390625 5.273438 -2.265625 5.859375 -2.265625 C 6.285156 -2.265625 6.65625 -2.328125 6.96875 -2.453125 C 7.289062 -2.578125 7.613281 -2.773438 7.9375 -3.046875 L 9.609375 -1.3125 C 8.722656 -0.332031 7.4375 0.15625 5.75 0.15625 C 4.695312 0.15625 3.769531 -0.0390625 2.96875 -0.4375 C 2.164062 -0.84375 1.546875 -1.398438 1.109375 -2.109375 C 0.671875 -2.828125 0.453125 -3.632812 0.453125 -4.53125 C 0.453125 -5.425781 0.664062 -6.222656 1.09375 -6.921875 C 1.519531 -7.628906 2.109375 -8.179688 2.859375 -8.578125 C 3.617188 -8.984375 4.472656 -9.1875 5.421875 -9.1875 C 6.316406 -9.1875 7.128906 -9 7.859375 -8.625 C 8.597656 -8.25 9.179688 -7.707031 9.609375 -7 C 10.035156 -6.300781 10.25 -5.46875 10.25 -4.5 Z M 5.4375 -6.9375 C 4.945312 -6.9375 4.535156 -6.796875 4.203125 -6.515625 C 3.878906 -6.242188 3.671875 -5.867188 3.578125 -5.390625 L 7.28125 -5.390625 C 7.195312 -5.867188 6.988281 -6.242188 6.65625 -6.515625 C 6.332031 -6.796875 5.925781 -6.9375 5.4375 -6.9375 Z M 5.4375 -6.9375 "/></g></g></g><g fill="#000000" fill-opacity="1"><g transform="translate(240.292755, 182.989801)"><g><path d="M 6.75 0 L 5.140625 -2.375 L 3.40625 0 L -0.03125 0 L 3.40625 -4.515625 L 0.0625 -9.03125 L 3.640625 -9.03125 L 5.234375 -6.75 L 6.90625 -9.03125 L 10.25 -9.03125 L 6.921875 -4.640625 L 10.375 0 Z M 6.75 0 "/></g></g></g><g fill="#000000" fill-opacity="1"><g transform="translate(249.1993, 182.989801)"><g><path d="M 6.703125 -9.1875 C 7.523438 -9.1875 8.269531 -8.992188 8.9375 -8.609375 C 9.613281 -8.222656 10.148438 -7.675781 10.546875 -6.96875 C 10.941406 -6.269531 11.140625 -5.453125 11.140625 -4.515625 C 11.140625 -3.585938 10.941406 -2.769531 10.546875 -2.0625 C 10.148438 -1.351562 9.613281 -0.804688 8.9375 -0.421875 C 8.269531 -0.0351562 7.523438 0.15625 6.703125 0.15625 C 5.648438 0.15625 4.8125 -0.160156 4.1875 -0.796875 L 4.1875 3.234375 L 1.015625 3.234375 L 1.015625 -9.03125 L 4.03125 -9.03125 L 4.03125 -8.140625 C 4.625 -8.835938 5.515625 -9.1875 6.703125 -9.1875 Z M 6.03125 -2.375 C 6.59375 -2.375 7.050781 -2.5625 7.40625 -2.9375 C 7.757812 -3.320312 7.9375 -3.847656 7.9375 -4.515625 C 7.9375 -5.179688 7.757812 -5.707031 7.40625 -6.09375 C 7.050781 -6.476562 6.59375 -6.671875 6.03125 -6.671875 C 5.476562 -6.671875 5.023438 -6.476562 4.671875 -6.09375 C 4.316406 -5.707031 4.140625 -5.179688 4.140625 -4.515625 C 4.140625 -3.847656 4.316406 -3.320312 4.671875 -2.9375 C 5.023438 -2.5625 5.476562 -2.375 6.03125 -2.375 Z M 6.03125 -2.375 "/></g></g></g><g fill="#000000" fill-opacity="1"><g transform="translate(259.373442, 182.989801)"><g><path d="M 10.25 -4.5 C 10.25 -4.476562 10.234375 -4.21875 10.203125 -3.71875 L 3.640625 -3.71875 C 3.765625 -3.25 4.019531 -2.890625 4.40625 -2.640625 C 4.789062 -2.390625 5.273438 -2.265625 5.859375 -2.265625 C 6.285156 -2.265625 6.65625 -2.328125 6.96875 -2.453125 C 7.289062 -2.578125 7.613281 -2.773438 7.9375 -3.046875 L 9.609375 -1.3125 C 8.722656 -0.332031 7.4375 0.15625 5.75 0.15625 C 4.695312 0.15625 3.769531 -0.0390625 2.96875 -0.4375 C 2.164062 -0.84375 1.546875 -1.398438 1.109375 -2.109375 C 0.671875 -2.828125 0.453125 -3.632812 0.453125 -4.53125 C 0.453125 -5.425781 0.664062 -6.222656 1.09375 -6.921875 C 1.519531 -7.628906 2.109375 -8.179688 2.859375 -8.578125 C 3.617188 -8.984375 4.472656 -9.1875 5.421875 -9.1875 C 6.316406 -9.1875 7.128906 -9 7.859375 -8.625 C 8.597656 -8.25 9.179688 -7.707031 9.609375 -7 C 10.035156 -6.300781 10.25 -5.46875 10.25 -4.5 Z M 5.4375 -6.9375 C 4.945312 -6.9375 4.535156 -6.796875 4.203125 -6.515625 C 3.878906 -6.242188 3.671875 -5.867188 3.578125 -5.390625 L 7.28125 -5.390625 C 7.195312 -5.867188 6.988281 -6.242188 6.65625 -6.515625 C 6.332031 -6.796875 5.925781 -6.9375 5.4375 -6.9375 Z M 5.4375 -6.9375 "/></g></g></g><g fill="#000000" fill-opacity="1"><g transform="translate(268.663603, 182.989801)"><g><path d="M 4.03125 -7.953125 C 4.351562 -8.359375 4.769531 -8.664062 5.28125 -8.875 C 5.800781 -9.082031 6.394531 -9.1875 7.0625 -9.1875 L 7.0625 -6.328125 C 6.78125 -6.367188 6.546875 -6.390625 6.359375 -6.390625 C 5.671875 -6.390625 5.132812 -6.203125 4.75 -5.828125 C 4.375 -5.460938 4.1875 -4.90625 4.1875 -4.15625 L 4.1875 0 L 1.015625 0 L 1.015625 -9.03125 L 4.03125 -9.03125 Z M 4.03125 -7.953125 "/></g></g></g><g fill="#000000" fill-opacity="1"><g transform="translate(274.634656, 182.989801)"><g><path d="M 7.25 -0.359375 C 6.988281 -0.191406 6.664062 -0.0664062 6.28125 0.015625 C 5.894531 0.109375 5.484375 0.15625 5.046875 0.15625 C 3.867188 0.15625 2.960938 -0.128906 2.328125 -0.703125 C 1.703125 -1.285156 1.390625 -2.148438 1.390625 -3.296875 L 1.390625 -6.328125 L 0.0625 -6.328125 L 0.0625 -8.703125 L 1.390625 -8.703125 L 1.390625 -11.046875 L 4.546875 -11.046875 L 4.546875 -8.703125 L 6.625 -8.703125 L 6.625 -6.328125 L 4.546875 -6.328125 L 4.546875 -3.328125 C 4.546875 -3.003906 4.628906 -2.75 4.796875 -2.5625 C 4.972656 -2.382812 5.207031 -2.296875 5.5 -2.296875 C 5.863281 -2.296875 6.1875 -2.390625 6.46875 -2.578125 Z M 7.25 -0.359375 "/></g></g></g></svg>